<?xml version="1.0" encoding="utf-8"?>
<!-- Svg Vector Icons : http://www.onlinewebfonts.com/icon -->
<!DOCTYPE svg PUBLIC "-//W3C//DTD SVG 1.1//EN" "http://www.w3.org/Graphics/SVG/1.1/DTD/svg11.dtd">
<svg version="1.1" xmlns="http://www.w3.org/2000/svg" xmlns:xlink="http://www.w3.org/1999/xlink" x="0px" y="0px" viewBox="0 0 256 256" enable-background="new 0 0 256 256" xml:space="preserve">
<metadata> Svg Vector Icons : http://www.onlinewebfonts.com/icon </metadata>
<g><g><g><path fill="#000000" d="M123.6,10.2c-2.7,0.4-6.5,1.6-9.7,3.3c-3,1.5-6.9,5.3-51,49.4l-47.8,47.8l-1.9,3.9c-2.5,5.1-3.5,9.6-3.1,14.8c0.8,12.1,8.6,22.7,19.6,26.3c5.6,1.8,8.2,3.7,9.3,6.5c0.3,0.9,0.5,10.6,0.5,29c0,21.9,0.1,28.4,0.6,30.8c2,9.5,7.7,16.9,16.2,21c5.4,2.6,8.6,3,23.4,3c7.2,0,14.2-0.2,15.6-0.5c7.5-1.4,13.5-6.6,16.7-14.4c1-2.4,1-3.1,1.2-28.3c0.2-25.3,0.3-25.9,1.2-27.2c2.4-3.1,2.4-3.2,13.6-3.2c11.1,0,11.2,0,13.6,3.2c0.9,1.2,1,1.9,1.2,26.9c0.2,19.2,0.4,26.1,0.8,27.5c2.5,7.8,9.3,14,17.1,15.4c4.1,0.8,28,0.6,32.2-0.3c8.7-1.8,16.5-7.7,20.2-15.4c3.3-6.7,3.4-7.4,3.4-38.8c0-30.8,0.1-29.6-3-32.1c-3.2-2.4-7.7-1.7-10.2,1.6l-1.2,1.6l-0.2,29.1l-0.2,29.1l-1.1,2.3c-1.5,2.9-4.3,5.7-7.2,7.2c-2.3,1.1-2.4,1.1-16.7,1.1c-13.8,0-14.4,0-15.6-1c-0.7-0.5-1.7-1.5-2.2-2.2c-1-1.2-1-1.9-1.2-28.8l-0.2-27.5l-1.7-3.5c-2.1-4.2-4.7-6.8-9-8.8l-3.1-1.5H128h-15.4l-3.1,1.5c-4.8,2.3-8.4,6.3-10.2,11.4c-0.3,0.9-0.6,11-0.8,28.7c-0.2,26.7-0.2,27.3-1.2,28.5c-0.5,0.7-1.5,1.7-2.2,2.2c-1.2,0.9-1.8,1-15.6,1c-14.4,0-14.4,0-16.7-1.2c-3-1.4-5.7-4.2-7.1-7.1l-1.2-2.3l-0.2-30.2L54,160l-1.2-3c-1.4-3.7-4.8-8.5-7.3-10.5c-2.6-2.1-6.5-3.7-8.6-3.7c-2.4,0-6.2-1.9-8.1-4.1c-0.8-0.9-2-2.8-2.7-4.2c-1-2.1-1.2-3.2-1.2-6.7c0-3.5,0.2-4.5,1.1-6.2c1.5-3,92-93.5,95.2-95.3c2.1-1.2,2.8-1.3,6.7-1.3c3.7,0,4.7,0.2,6.5,1.1c1.3,0.7,7.1,6,15.7,14.7c14.6,14.6,15.1,14.9,18.4,13.8c2.4-0.8,3.4-2.5,3.7-6.8c0.3-3.9,0.9-5.3,3.4-7.1c1.2-0.9,1.9-1,11.3-1c11.1,0,11.2,0,13.6,3.2c0.9,1.2,1,2,1.2,21.9c0.3,21.8,0.3,22.2,2.6,27.4c2.4,5.4,7.8,11.3,19.1,20.8c6.8,5.8,7.5,6.6,7.9,9.1c0.2,1.4,0.8,2.4,2,3.7c4.8,4.7,12.5,1.4,12.5-5.4c0-3.9-1.6-6-14.7-19.2c-9.1-9.2-12.6-13.1-13.5-14.8l-1.1-2.3l-0.2-22.6l-0.2-22.6l-1.5-3.1c-1.7-3.6-5-7.2-8.3-8.8c-3.9-2-6.6-2.3-21.1-2.1c-15.3,0.2-15.8,0.3-20.9,4.1l-3,2.3l-8.1-8c-7.4-7.3-8.5-8.2-12-10C135.7,10.4,129.7,9.4,123.6,10.2z"/><path fill="#000000" d="M220.7,143.5c-4.9,2.5-5.6,9.1-1.3,12.4c4.5,3.5,11.1,0.6,11.7-5C231.8,145.3,225.6,141,220.7,143.5z"/></g></g></g>
</svg>