<?xml version="1.0" encoding="utf-8"?>
<!-- Svg Vector Icons : http://www.onlinewebfonts.com/icon -->
<!DOCTYPE svg PUBLIC "-//W3C//DTD SVG 1.1//EN" "http://www.w3.org/Graphics/SVG/1.1/DTD/svg11.dtd">
<svg version="1.1" xmlns="http://www.w3.org/2000/svg" xmlns:xlink="http://www.w3.org/1999/xlink" x="0px" y="0px" viewBox="0 0 256 256" enable-background="new 0 0 256 256" xml:space="preserve">
<metadata> Svg Vector Icons : http://www.onlinewebfonts.com/icon </metadata>
<g><g><path fill="#000000" d="M243.2,135.4c-1.5,0-2.8,1.7-2.8,3.7v95.9c0,2-1.3,3.7-2.8,3.7H18.4c-1.5,0-2.8-1.7-2.8-3.7v-95.9c0-2-1.3-3.7-2.8-3.7c-1.6,0-2.8,1.7-2.8,3.7v95.9c0,6.1,3.8,11.1,8.4,11.1h219.1c4.6,0,8.4-5,8.4-11.1v-95.9C246,137,244.7,135.4,243.2,135.4L243.2,135.4z M237.5,61.6H18.4c-4.6,0-8.4,5-8.4,11.1V117c0,2,1.3,3.7,2.8,3.7h75.8v25.8c0,6.1,3.8,11.1,8.4,11.1h61.8c4.6,0,8.4-5,8.4-11.1v-25.8h75.8c1.5,0,2.8-1.7,2.8-3.7V72.7C246,66.6,242.2,61.6,237.5,61.6z M161.7,146.5c0,2-1.3,3.7-2.8,3.7H97.1c-1.5,0-2.8-1.7-2.8-3.7v-25.8h67.4V146.5L161.7,146.5z M240.4,113.3H15.6V72.7c0-2,1.3-3.7,2.8-3.7h219.1c1.5,0,2.8,1.7,2.8,3.7V113.3z M97.1,10c-4.6,0-8.4,5-8.4,11.1v29.5c0,2,1.3,3.7,2.8,3.7c1.5,0,2.8-1.7,2.8-3.7V21.1c0-2,1.3-3.7,2.8-3.7h61.8c1.5,0,2.8,1.7,2.8,3.7v29.5c0,2,1.3,3.7,2.8,3.7c1.5,0,2.8-1.7,2.8-3.7V21.1c0-6.1-3.8-11.1-8.4-11.1H97.1L97.1,10z"/></g></g>
</svg>